# xmcd
#
# Track frame offsets:
#	150
#	18012
#	38538
#	55579
#	79929
#	96771
#	112994
#	131829
#	152575
#	180679
#	202299
#	216156
#	242991
#	265496
#
# Disc length: 3877 seconds
#
# Revision: 0
# Processed by: cddbd v1.5.1PL0 Copyright (c) Steve Scherf et al.
# Submitted via: EasyCDDAExtractor 8.1.4.1
#
DISCID=be0f230e
DTITLE=Melanie Mason - Live at Blues Alley
DYEAR=2005
DGENRE=Blues
TTITLE0=Crave
TTITLE1=I'm Tore Down
TTITLE2=Mississippi Blues
TTITLE3=I'm In The Mood
TTITLE4=Lonely Lonesome Gal
TTITLE5=Work Your Magic
TTITLE6=Born In The Country
TTITLE7=Love's Slow Burn
TTITLE8=Before You Accuse Me
TTITLE9=Thrill Is gone
TTITLE10=Castles Made Of Sand
TTITLE11=Crossroads
TTITLE12=When Love Comes To Town
TTITLE13=Gospel at the River
EXTD=
EXTT0=
EXTT1=
EXTT2=
EXTT3=
EXTT4=
EXTT5=
EXTT6=
EXTT7=
EXTT8=
EXTT9=
EXTT10=
EXTT11=
EXTT12=
EXTT13=
PLAYORDER=
